<?xml version="1.0" encoding="UTF-8"?>
<svg xmlns="http://www.w3.org/2000/svg" viewBox="0 0 280 180" width="840" height="540">
  <rect width="280" height="180" fill="#1a1a2e" />
  <!-- Raw polyline (gray) -->
  <polyline points="97.8,46.8 97.1,46.1 96.7,45.1 96.8,44.0 97.3,43.3 98.2,42.6 90.8,42.2 73.9,41.4 48.6,40.5 47.3,40.5 46.1,40.6 45.6,40.9 45.1,41.4 44.7,42.1 44.6,42.9 44.6,43.7 44.8,44.6 45.4,45.6 45.9,46.2 46.5,46.8 47.9,47.8 53.4,51.6 56.8,53.9 59.0,55.2 61.3,56.0 64.2,56.3 66.9,56.1 69.3,55.5 75.0,52.7 78.6,51.0 81.8,49.5 85.3,48.2 88.3,47.3 91.1,46.9 94.4,46.7 97.8,46.8 101.1,47.4 103.0,47.9 104.3,48.2 105.6,48.7 106.9,49.2 108.4,50.1 111.3,51.8 114.5,53.7 117.6,55.7 120.6,57.4 123.5,59.2 126.9,61.2 130.3,63.3 133.5,65.3 136.6,67.1 139.9,69.1 143.0,71.0 146.2,72.9 149.3,74.8 155.1,78.3 158.7,80.5 167.2,85.7 171.4,88.3 172.4,89.1 172.9,89.9 173.1,90.9 173.1,91.9 172.9,92.7 172.5,93.4 171.0,94.9 168.0,97.2 165.5,99.2 164.0,100.7 162.6,102.3 162.1,103.5 161.8,104.9 161.7,105.9 161.8,106.9 162.0,108.3 162.2,109.7 162.5,111.1 162.6,111.7 162.6,112.3 162.4,114.2 162.1,115.7 161.1,118.5 160.5,119.6 159.7,120.6 157.7,122.7 154.7,124.8 151.4,126.5 148.1,127.9 145.5,128.6 142.3,129.3 140.1,129.6 137.6,129.7 135.2,129.7 132.3,129.4 130.1,129.0 127.9,128.5 125.9,127.9 122.6,126.7 120.8,125.7 118.8,124.6 111.8,120.4 93.3,109.1 87.2,105.3 85.9,104.5 84.4,103.7 82.9,103.0 80.9,102.6 79.1,102.5 77.5,102.4 75.6,102.6 73.8,102.9 72.3,103.5 70.5,104.3 66.0,107.5 64.6,108.5 63.2,109.4 61.6,110.0 59.9,110.4 58.2,110.7 56.0,110.7 54.1,110.3 52.5,109.7 50.5,108.8 48.2,107.0 42.6,101.6 41.2,100.7 38.7,99.7 36.9,99.2 35.5,99.0 33.7,99.0 32.2,99.1 30.8,99.3 28.5,99.9 26.3,100.6 23.5,101.8 20.7,103.7 18.1,106.3 16.9,108.2 16.0,110.2 15.3,112.1 15.0,114.0 15.0,115.7 15.0,117.2 15.5,118.9 15.9,120.1 16.7,121.2 17.6,122.0 18.6,122.7 19.6,123.1 20.6,123.3 21.7,123.3 23.5,123.1 27.3,122.6 29.6,122.4 31.6,122.4 33.5,122.6 35.3,122.8 45.0,125.0 54.3,127.1 57.1,127.4 59.2,127.5 62.3,127.5 73.4,127.2 99.7,126.5 101.2,126.4 103.0,126.5 104.7,126.8 106.3,127.1 109.8,128.0 113.0,129.2 119.1,131.3 122.6,132.5 125.8,133.6 129.0,134.8 135.1,136.8 140.2,138.1 143.6,138.8 147.3,139.2 151.9,139.5 156.9,139.5 163.3,139.0 168.7,138.2 171.9,137.4 175.1,136.4 177.9,135.5 194.5,129.4 195.4,129.1 197.4,128.3 199.8,127.4 211.9,122.9 217.3,120.8 222.1,118.7 225.5,117.1 229.6,115.1 232.0,113.8 248.0,104.1 248.9,103.5 249.5,102.9 249.9,102.6 250.3,102.1 250.6,101.4 250.7,100.6 250.6,99.8 250.4,99.1 249.9,98.4 249.0,97.9 248.1,97.3 243.9,94.7 242.5,93.6 241.9,93.0 241.4,92.3 240.9,91.5 240.3,90.0 239.9,88.5 239.8,87.4 239.9,85.8 240.3,84.1 241.0,82.6 241.9,81.4 243.2,80.4 244.2,80.0 245.1,79.8 245.6,79.8 246.0,79.7 247.0,79.7 251.2,79.8 255.0,79.8 255.7,79.8 256.6,79.5 257.3,79.2 257.9,78.9 258.8,78.3 259.4,77.7 260.5,76.6 261.8,74.3 264.6,69.3 264.9,68.7 265.0,68.0 264.9,67.6 264.7,67.1 264.3,66.8 263.9,66.6 262.3,66.2 261.7,65.9 261.4,65.6 261.2,65.3 261.1,64.9 261.2,64.5 261.3,63.8 261.4,63.2 261.7,62.1 264.2,52.3 264.3,51.8 264.3,51.2 264.2,50.6 264.0,50.2 263.4,49.7 262.8,49.4 262.2,49.2 261.4,49.0 260.4,48.9 189.0,45.9 179.2,45.5 182.2,46.8 185.8,48.5 188.5,50.0 189.5,50.9 190.5,52.1 191.3,53.5 192.1,55.2 192.5,56.8 192.9,59.6 193.5,76.9 193.6,79.7 193.6,82.8 193.1,84.9 192.1,86.7 190.7,89.3 190.4,91.0 190.3,93.3 190.2,99.3 189.7,107.1 189.9,117.6 189.5,119.8 188.5,121.2 187.0,122.4 182.3,123.9 180.8,124.8 179.5,126.5 178.9,128.6 178.8,130.8 178.9,132.8 178.6,134.4 177.9,135.5" fill="none" stroke="#333" stroke-width="0.5" />
  <!-- Clean polyline (dark red) -->
  <polyline points="97.8,46.8 97.1,46.1 96.7,45.1 96.8,44.0 97.3,43.3 98.2,42.6 90.8,42.2 73.9,41.4 48.6,40.5 47.3,40.5 46.1,40.6 45.6,40.9 45.1,41.4 44.7,42.1 44.6,42.9 44.6,43.7 44.8,44.6 45.4,45.6 45.9,46.2 46.5,46.8 47.9,47.8 53.4,51.6 56.8,53.9 59.0,55.2 61.3,56.0 64.2,56.3 66.9,56.1 69.3,55.5 75.0,52.7 78.6,51.0 81.8,49.5 85.3,48.2 88.3,47.3 91.1,46.9 94.4,46.7 97.8,46.8 101.1,47.4 103.0,47.9 104.3,48.2 105.6,48.7 106.9,49.2 108.4,50.1 111.3,51.8 114.5,53.7 117.6,55.7 120.6,57.4 123.5,59.2 126.9,61.2 130.3,63.3 133.5,65.3 136.6,67.1 139.9,69.1 143.0,71.0 146.2,72.9 149.3,74.8 155.1,78.3 158.7,80.5 167.2,85.7 171.4,88.3 172.4,89.1 172.9,89.9 173.1,90.9 173.1,91.9 172.9,92.7 172.5,93.4 171.0,94.9 168.0,97.2 165.5,99.2 164.0,100.7 162.6,102.3 162.1,103.5 161.8,104.9 161.7,105.9 161.8,106.9 162.0,108.3 162.2,109.7 162.5,111.1 162.6,111.7 162.6,112.3 162.4,114.2 162.1,115.7 161.1,118.5 160.5,119.6 159.7,120.6 157.7,122.7 154.7,124.8 151.4,126.5 148.1,127.9 145.5,128.6 142.3,129.3 140.1,129.6 137.6,129.7 135.2,129.7 132.3,129.4 130.1,129.0 127.9,128.5 125.9,127.9 122.6,126.7 120.8,125.7 118.8,124.6 111.8,120.4 93.3,109.1 87.2,105.3 85.9,104.5 84.4,103.7 82.9,103.0 80.9,102.6 79.1,102.5 77.5,102.4 75.6,102.6 73.8,102.9 72.3,103.5 70.5,104.3 66.0,107.5 64.6,108.5 63.2,109.4 61.6,110.0 59.9,110.4 58.2,110.7 56.0,110.7 54.1,110.3 52.5,109.7 50.5,108.8 48.2,107.0 42.6,101.6 41.2,100.7 38.7,99.7 36.9,99.2 35.5,99.0 33.7,99.0 32.2,99.1 30.8,99.3 28.5,99.9 26.3,100.6 23.5,101.8 20.7,103.7 18.1,106.3 16.9,108.2 16.0,110.2 15.3,112.1 15.0,114.0 15.0,115.7 15.0,117.2 15.5,118.9 15.9,120.1 16.7,121.2 17.6,122.0 18.6,122.7 19.6,123.1 20.6,123.3 21.7,123.3 23.5,123.1 27.3,122.6 29.6,122.4 31.6,122.4 33.5,122.6 35.3,122.8 45.0,125.0 54.3,127.1 57.1,127.4 59.2,127.5 62.3,127.5 73.4,127.2 99.7,126.5 101.2,126.4 103.0,126.5 104.7,126.8 106.3,127.1 109.8,128.0 113.0,129.2 119.1,131.3 122.6,132.5 125.8,133.6 129.0,134.8 135.1,136.8 140.2,138.1 143.6,138.8 147.3,139.2 151.9,139.5 156.9,139.5 163.3,139.0 168.7,138.2 171.9,137.4 175.1,136.4 177.9,135.5 194.5,129.4 195.4,129.1 197.4,128.3 199.8,127.4 211.9,122.9 217.3,120.8 222.1,118.7 225.5,117.1 229.6,115.1 232.0,113.8 248.0,104.1 248.9,103.5 249.5,102.9 249.9,102.6 250.3,102.1 250.6,101.4 250.7,100.6 250.6,99.8 250.4,99.1 249.9,98.4 249.0,97.9 248.1,97.3 243.9,94.7 242.5,93.6 241.9,93.0 241.4,92.3 240.9,91.5 240.3,90.0 239.9,88.5 239.8,87.4 239.9,85.8 240.3,84.1 241.0,82.6 241.9,81.4 243.2,80.4 244.2,80.0 245.1,79.8 245.6,79.8 246.0,79.7 247.0,79.7 251.2,79.8 255.0,79.8 255.7,79.8 256.6,79.5 257.3,79.2 257.9,78.9 258.8,78.3 259.4,77.7 260.5,76.6 261.8,74.3 264.6,69.3 264.9,68.7 265.0,68.0 264.9,67.6 264.7,67.1 264.3,66.8 263.9,66.6 262.3,66.2 261.7,65.9 261.4,65.6 261.2,65.3 261.1,64.9 261.2,64.5 261.3,63.8 261.4,63.2 261.7,62.1 264.2,52.3 264.3,51.8 264.3,51.2 264.2,50.6 264.0,50.2 263.4,49.7 262.8,49.4 262.2,49.2 261.4,49.0 260.4,48.9 189.0,45.9 179.2,45.5 182.2,46.8 185.8,48.5 188.5,50.0 189.5,50.9 190.5,52.1 191.3,53.5 192.1,55.2 192.5,56.8 192.9,59.6 193.5,76.9 193.6,79.7 193.6,82.8 193.1,84.9 192.1,86.7 190.7,89.3 190.4,91.0 190.3,93.3 190.2,99.3 189.7,107.1 189.9,117.6 189.5,119.8 188.5,121.2 187.0,122.4 182.3,123.9 180.8,124.8 179.5,126.5 178.9,128.6 178.8,130.8 178.9,132.8 178.6,134.4 177.9,135.5" fill="none" stroke="#600" stroke-width="1" />
  <!-- Smoothed path (bright red) -->
  <path d="M 97.8 46.8 C 84.5 31.3, 106.4 43.6, 98.2 42.6 C 90.0 41.5, 57.4 40.6, 48.6 40.5 C 39.7 40.3, 45.6 40.5, 45.1 41.4 C 44.5 42.2, 43.0 43.3, 45.4 45.6 C 47.7 47.9, 55.8 53.4, 59.0 55.2 C 62.1 57.0, 59.3 57.7, 64.2 56.3 C 69.1 55.0, 81.6 48.7, 88.3 47.3 C 94.9 46.0, 90.4 41.4, 104.3 48.2 C 118.1 55.0, 160.0 80.9, 171.4 88.3 C 182.8 95.7, 174.3 90.4, 172.9 92.7 C 171.4 95.1, 164.4 98.5, 162.6 102.3 C 160.8 106.1, 162.9 112.3, 162.1 115.7 C 161.3 119.1, 160.4 120.6, 157.7 122.7 C 154.9 124.9, 150.1 127.6, 145.5 128.6 C 140.9 129.7, 134.2 129.5, 130.1 129.0 C 126.0 128.6, 128.6 130.1, 120.8 125.7 C 112.9 121.4, 90.7 106.8, 82.9 103.0 C 75.0 99.2, 77.1 101.8, 73.8 102.9 C 70.6 104.0, 66.1 108.1, 63.2 109.4 C 60.2 110.7, 58.2 110.8, 56.0 110.7 C 53.9 110.6, 53.0 110.5, 50.5 108.8 C 48.0 107.2, 44.0 102.3, 41.2 100.7 C 38.4 99.1, 36.7 98.8, 33.7 99.0 C 30.8 99.2, 26.1 100.6, 23.5 101.8 C 20.9 103.1, 19.5 104.6, 18.1 106.3 C 16.8 108.0, 15.7 109.8, 15.3 112.1 C 15.0 114.4, 15.1 118.2, 15.9 120.1 C 16.8 122.0, 17.7 122.9, 20.6 123.3 C 23.6 123.7, 27.4 121.9, 33.5 122.6 C 39.6 123.3, 45.5 126.8, 57.1 127.4 C 68.7 128.1, 90.0 124.9, 103.0 126.5 C 116.0 128.0, 127.0 134.6, 135.1 136.8 C 143.3 138.9, 145.8 139.4, 151.9 139.5 C 158.0 139.6, 161.9 140.1, 171.9 137.4 C 181.9 134.6, 199.1 128.6, 211.9 122.9 C 224.8 117.3, 242.5 107.5, 248.9 103.5 C 255.4 99.5, 251.7 100.9, 250.4 99.1 C 249.1 97.2, 243.1 94.8, 241.4 92.3 C 239.7 89.8, 240.0 86.1, 240.3 84.1 C 240.6 82.1, 240.7 81.1, 243.2 80.4 C 245.8 79.7, 252.8 80.4, 255.7 79.8 C 258.6 79.1, 258.9 78.5, 260.5 76.6 C 262.0 74.6, 264.9 70.0, 265.0 68.0 C 265.1 66.1, 261.3 67.9, 261.1 64.9 C 261.0 62.0, 277.6 53.4, 264.0 50.2 C 250.3 46.9, 191.8 45.5, 179.2 45.5 C 166.6 45.5, 186.3 48.4, 188.5 50.0 C 190.6 51.6, 191.2 49.8, 192.1 55.2 C 192.9 60.7, 193.9 76.8, 193.6 82.8 C 193.3 88.7, 191.0 84.8, 190.4 91.0 C 189.7 97.1, 191.4 113.9, 189.5 119.8 C 187.7 125.8, 181.5 123.9, 179.5 126.5 C 177.6 129.1, 191.5 148.8, 177.9 135.5 C 164.2 122.3, 111.1 62.3, 97.8 46.8 Z" fill="none" stroke="#E10600" stroke-width="2.5" stroke-linejoin="round" stroke-linecap="round" />
  <!-- Simplified control points -->
  <circle cx="97.8" cy="46.8" r="2" fill="lime" /><text x="100.8" y="47.8" fill="lime" font-size="4" font-family="sans-serif">0</text>
  <circle cx="98.2" cy="42.6" r="2" fill="lime" /><text x="101.2" y="43.6" fill="lime" font-size="4" font-family="sans-serif">1</text>
  <circle cx="48.6" cy="40.5" r="2" fill="lime" /><text x="51.6" y="41.5" fill="lime" font-size="4" font-family="sans-serif">2</text>
  <circle cx="45.1" cy="41.4" r="2" fill="lime" /><text x="48.1" y="42.4" fill="lime" font-size="4" font-family="sans-serif">3</text>
  <circle cx="45.4" cy="45.6" r="2" fill="lime" /><text x="48.4" y="46.6" fill="lime" font-size="4" font-family="sans-serif">4</text>
  <circle cx="59.0" cy="55.2" r="2" fill="lime" /><text x="62.0" y="56.2" fill="lime" font-size="4" font-family="sans-serif">5</text>
  <circle cx="64.2" cy="56.3" r="2" fill="lime" /><text x="67.2" y="57.3" fill="lime" font-size="4" font-family="sans-serif">6</text>
  <circle cx="88.3" cy="47.3" r="2" fill="lime" /><text x="91.3" y="48.3" fill="lime" font-size="4" font-family="sans-serif">7</text>
  <circle cx="104.3" cy="48.2" r="2" fill="lime" /><text x="107.3" y="49.2" fill="lime" font-size="4" font-family="sans-serif">8</text>
  <circle cx="171.4" cy="88.3" r="2" fill="lime" /><text x="174.4" y="89.3" fill="lime" font-size="4" font-family="sans-serif">9</text>
  <circle cx="172.9" cy="92.7" r="2" fill="lime" /><text x="175.9" y="93.7" fill="lime" font-size="4" font-family="sans-serif">10</text>
  <circle cx="162.6" cy="102.3" r="2" fill="lime" /><text x="165.6" y="103.3" fill="lime" font-size="4" font-family="sans-serif">11</text>
  <circle cx="162.1" cy="115.7" r="2" fill="lime" /><text x="165.1" y="116.7" fill="lime" font-size="4" font-family="sans-serif">12</text>
  <circle cx="157.7" cy="122.7" r="2" fill="lime" /><text x="160.7" y="123.7" fill="lime" font-size="4" font-family="sans-serif">13</text>
  <circle cx="145.5" cy="128.6" r="2" fill="lime" /><text x="148.5" y="129.6" fill="lime" font-size="4" font-family="sans-serif">14</text>
  <circle cx="130.1" cy="129.0" r="2" fill="lime" /><text x="133.1" y="130.0" fill="lime" font-size="4" font-family="sans-serif">15</text>
  <circle cx="120.8" cy="125.7" r="2" fill="lime" /><text x="123.8" y="126.7" fill="lime" font-size="4" font-family="sans-serif">16</text>
  <circle cx="82.9" cy="103.0" r="2" fill="lime" /><text x="85.9" y="104.0" fill="lime" font-size="4" font-family="sans-serif">17</text>
  <circle cx="73.8" cy="102.9" r="2" fill="lime" /><text x="76.8" y="103.9" fill="lime" font-size="4" font-family="sans-serif">18</text>
  <circle cx="63.2" cy="109.4" r="2" fill="lime" /><text x="66.2" y="110.4" fill="lime" font-size="4" font-family="sans-serif">19</text>
  <circle cx="56.0" cy="110.7" r="2" fill="lime" /><text x="59.0" y="111.7" fill="lime" font-size="4" font-family="sans-serif">20</text>
  <circle cx="50.5" cy="108.8" r="2" fill="lime" /><text x="53.5" y="109.8" fill="lime" font-size="4" font-family="sans-serif">21</text>
  <circle cx="41.2" cy="100.7" r="2" fill="lime" /><text x="44.2" y="101.7" fill="lime" font-size="4" font-family="sans-serif">22</text>
  <circle cx="33.7" cy="99.0" r="2" fill="lime" /><text x="36.7" y="100.0" fill="lime" font-size="4" font-family="sans-serif">23</text>
  <circle cx="23.5" cy="101.8" r="2" fill="lime" /><text x="26.5" y="102.8" fill="lime" font-size="4" font-family="sans-serif">24</text>
  <circle cx="18.1" cy="106.3" r="2" fill="lime" /><text x="21.1" y="107.3" fill="lime" font-size="4" font-family="sans-serif">25</text>
  <circle cx="15.3" cy="112.1" r="2" fill="lime" /><text x="18.3" y="113.1" fill="lime" font-size="4" font-family="sans-serif">26</text>
  <circle cx="15.9" cy="120.1" r="2" fill="lime" /><text x="18.9" y="121.1" fill="lime" font-size="4" font-family="sans-serif">27</text>
  <circle cx="20.6" cy="123.3" r="2" fill="lime" /><text x="23.6" y="124.3" fill="lime" font-size="4" font-family="sans-serif">28</text>
  <circle cx="33.5" cy="122.6" r="2" fill="lime" /><text x="36.5" y="123.6" fill="lime" font-size="4" font-family="sans-serif">29</text>
  <circle cx="57.1" cy="127.4" r="2" fill="lime" /><text x="60.1" y="128.4" fill="lime" font-size="4" font-family="sans-serif">30</text>
  <circle cx="103.0" cy="126.5" r="2" fill="lime" /><text x="106.0" y="127.5" fill="lime" font-size="4" font-family="sans-serif">31</text>
  <circle cx="135.1" cy="136.8" r="2" fill="lime" /><text x="138.1" y="137.8" fill="lime" font-size="4" font-family="sans-serif">32</text>
  <circle cx="151.9" cy="139.5" r="2" fill="lime" /><text x="154.9" y="140.5" fill="lime" font-size="4" font-family="sans-serif">33</text>
  <circle cx="171.9" cy="137.4" r="2" fill="lime" /><text x="174.9" y="138.4" fill="lime" font-size="4" font-family="sans-serif">34</text>
  <circle cx="211.9" cy="122.9" r="2" fill="lime" /><text x="214.9" y="123.9" fill="lime" font-size="4" font-family="sans-serif">35</text>
  <circle cx="248.9" cy="103.5" r="2" fill="lime" /><text x="251.9" y="104.5" fill="lime" font-size="4" font-family="sans-serif">36</text>
  <circle cx="250.4" cy="99.1" r="2" fill="lime" /><text x="253.4" y="100.1" fill="lime" font-size="4" font-family="sans-serif">37</text>
  <circle cx="241.4" cy="92.3" r="2" fill="lime" /><text x="244.4" y="93.3" fill="lime" font-size="4" font-family="sans-serif">38</text>
  <circle cx="240.3" cy="84.1" r="2" fill="lime" /><text x="243.3" y="85.1" fill="lime" font-size="4" font-family="sans-serif">39</text>
  <circle cx="243.2" cy="80.4" r="2" fill="lime" /><text x="246.2" y="81.4" fill="lime" font-size="4" font-family="sans-serif">40</text>
  <circle cx="255.7" cy="79.8" r="2" fill="lime" /><text x="258.7" y="80.8" fill="lime" font-size="4" font-family="sans-serif">41</text>
  <circle cx="260.5" cy="76.6" r="2" fill="lime" /><text x="263.5" y="77.6" fill="lime" font-size="4" font-family="sans-serif">42</text>
  <circle cx="265.0" cy="68.0" r="2" fill="lime" /><text x="268.0" y="69.0" fill="lime" font-size="4" font-family="sans-serif">43</text>
  <circle cx="261.1" cy="64.9" r="2" fill="lime" /><text x="264.1" y="65.9" fill="lime" font-size="4" font-family="sans-serif">44</text>
  <circle cx="264.0" cy="50.2" r="2" fill="lime" /><text x="267.0" y="51.2" fill="lime" font-size="4" font-family="sans-serif">45</text>
  <circle cx="179.2" cy="45.5" r="2" fill="lime" /><text x="182.2" y="46.5" fill="lime" font-size="4" font-family="sans-serif">46</text>
  <circle cx="188.5" cy="50.0" r="2" fill="lime" /><text x="191.5" y="51.0" fill="lime" font-size="4" font-family="sans-serif">47</text>
  <circle cx="192.1" cy="55.2" r="2" fill="lime" /><text x="195.1" y="56.2" fill="lime" font-size="4" font-family="sans-serif">48</text>
  <circle cx="193.6" cy="82.8" r="2" fill="lime" /><text x="196.6" y="83.8" fill="lime" font-size="4" font-family="sans-serif">49</text>
  <circle cx="190.4" cy="91.0" r="2" fill="lime" /><text x="193.4" y="92.0" fill="lime" font-size="4" font-family="sans-serif">50</text>
  <circle cx="189.5" cy="119.8" r="2" fill="lime" /><text x="192.5" y="120.8" fill="lime" font-size="4" font-family="sans-serif">51</text>
  <circle cx="179.5" cy="126.5" r="2" fill="lime" /><text x="182.5" y="127.5" fill="lime" font-size="4" font-family="sans-serif">52</text>
  <circle cx="177.9" cy="135.5" r="2" fill="lime" /><text x="180.9" y="136.5" fill="lime" font-size="4" font-family="sans-serif">53</text>
  <!-- Grandstands -->
  <circle cx="106" cy="60" r="4" fill="#FFD700" stroke="#000" stroke-width="0.5" />
  <text x="112" y="63" fill="#fff" font-size="7" font-family="sans-serif">mia-main</text>
  <circle cx="170" cy="88" r="4" fill="#FFD700" stroke="#000" stroke-width="0.5" />
  <text x="176" y="91" fill="#fff" font-size="7" font-family="sans-serif">mia-t1</text>
  <circle cx="53" cy="135" r="4" fill="#FFD700" stroke="#000" stroke-width="0.5" />
  <text x="59" y="138" fill="#fff" font-size="7" font-family="sans-serif">mia-t11</text>
  <circle cx="95" cy="98" r="4" fill="#FFD700" stroke="#000" stroke-width="0.5" />
  <text x="101" y="101" fill="#fff" font-size="7" font-family="sans-serif">mia-campus</text>
  <circle cx="86" cy="42" r="4" fill="#FFD700" stroke="#000" stroke-width="0.5" />
  <text x="92" y="45" fill="#fff" font-size="7" font-family="sans-serif">mia-t17</text>
  <text x="140" y="12" fill="#aaa" font-size="8" text-anchor="middle" font-family="sans-serif">Miami International Autodrome — Clean OSM trace</text>
</svg>