<?xml version="1.0" encoding="UTF-8"?>
<svg xmlns="http://www.w3.org/2000/svg" viewBox="0 0 280 180" width="840" height="540">
  <rect width="280" height="180" fill="#1a1a2e" />
  <path d="M 164.8 58.6 C 164.3 58.1, 171.7 55.5, 173.3 55.5 C 175.0 55.6, 174.0 58.1, 174.5 58.6 C 175.0 59.2, 176.6 58.2, 176.3 58.7 C 176.1 59.2, 174.1 61.0, 173.2 61.5 C 172.2 62.0, 171.9 62.1, 170.5 61.6 C 169.1 61.1, 170.1 55.4, 164.8 58.6 C 159.5 61.8, 144.6 76.4, 138.7 80.9 C 132.8 85.4, 132.5 84.5, 129.5 85.5 C 126.4 86.5, 133.3 90.9, 120.5 87.1 C 107.7 83.3, 67.5 68.7, 52.9 62.7 C 38.2 56.8, 38.3 54.9, 32.7 51.2 C 27.2 47.6, 22.6 44.0, 19.7 41.0 C 16.8 38.1, 15.6 35.6, 15.1 33.3 C 14.6 31.0, 14.9 28.8, 16.6 27.2 C 18.2 25.5, 22.4 24.0, 25.2 23.5 C 27.9 22.9, 31.3 23.5, 33.2 24.0 C 35.1 24.6, 34.4 23.0, 36.4 26.8 C 38.5 30.6, 42.9 42.1, 45.4 46.8 C 48.0 51.5, 49.0 52.5, 51.8 54.9 C 54.5 57.4, 57.2 59.6, 62.1 61.5 C 67.1 63.3, 76.8 65.3, 81.4 66.0 C 86.0 66.6, 87.1 65.9, 89.7 65.2 C 92.3 64.5, 94.8 63.3, 96.9 61.7 C 99.0 60.1, 99.8 59.3, 102.3 55.8 C 104.7 52.4, 109.4 43.5, 111.6 40.9 C 113.9 38.3, 114.8 40.0, 115.6 40.3 C 116.4 40.6, 117.4 39.6, 116.7 42.7 C 115.9 45.8, 110.8 50.1, 111.1 58.9 C 111.3 67.6, 116.5 88.9, 118.1 95.3 C 119.6 101.8, 116.9 97.5, 120.4 97.5 C 123.9 97.6, 133.3 99.1, 139.0 95.8 C 144.7 92.4, 150.3 81.7, 154.7 77.6 C 159.1 73.6, 161.9 72.7, 165.3 71.5 C 168.8 70.3, 172.0 70.1, 175.4 70.4 C 178.9 70.7, 183.2 72.3, 185.9 73.4 C 188.6 74.4, 190.0 75.3, 191.5 76.8 C 192.9 78.2, 193.9 80.4, 194.4 82.1 C 194.9 83.7, 195.0 83.9, 194.4 86.6 C 193.7 89.4, 190.8 95.6, 190.5 98.6 C 190.2 101.6, 191.4 103.1, 192.7 104.7 C 193.9 106.4, 195.6 107.9, 198.1 108.7 C 200.6 109.5, 205.3 109.0, 207.8 109.5 C 210.2 110.0, 211.4 110.6, 212.8 111.7 C 214.1 112.8, 214.7 113.2, 216.0 116.1 C 217.2 118.9, 219.0 126.2, 220.5 128.8 C 221.9 131.4, 222.1 130.8, 224.7 131.6 C 227.3 132.4, 231.8 130.0, 235.9 133.7 C 240.0 137.4, 246.3 149.8, 249.5 153.6 C 252.8 157.5, 253.3 156.7, 255.3 156.8 C 257.2 157.0, 259.7 156.2, 261.2 154.6 C 262.7 152.9, 263.8 149.1, 264.4 146.8 C 265.0 144.4, 265.1 142.5, 264.7 140.5 C 264.2 138.5, 272.1 147.9, 261.7 134.9 C 251.2 122.0, 213.7 76.0, 201.8 62.8 C 189.8 49.7, 193.3 57.3, 189.9 56.2 C 186.5 55.1, 183.6 55.6, 181.3 56.1 C 179.1 56.5, 179.1 58.3, 176.3 58.7 C 173.6 59.1, 165.3 59.1, 164.8 58.6 Z" fill="none" stroke="#E10600" stroke-width="2.5" stroke-linejoin="round" stroke-linecap="round" />
  <circle cx="224" cy="80" r="4" fill="#FFD700" stroke="#000" stroke-width="0.5" />
  <text x="230" y="83" fill="white" font-size="7" font-family="sans-serif">MAIN</text>
  <circle cx="200" cy="114" r="4" fill="#FFD700" stroke="#000" stroke-width="0.5" />
  <text x="206" y="117" fill="white" font-size="7" font-family="sans-serif">ESSES</text>
  <circle cx="129" cy="80" r="4" fill="#FFD700" stroke="#000" stroke-width="0.5" />
  <text x="135" y="83" fill="white" font-size="7" font-family="sans-serif">130R</text>
  <circle cx="11" cy="21" r="4" fill="#FFD700" stroke="#000" stroke-width="0.5" />
  <text x="17" y="24" fill="white" font-size="7" font-family="sans-serif">SPOON</text>
  <text x="140" y="12" fill="#666" font-size="8" text-anchor="middle" font-family="sans-serif">Suzuka Circuit — Complete with Spoon (from OSM + official KML)</text>
</svg>