<?xml version="1.0" encoding="UTF-8"?>
<svg xmlns="http://www.w3.org/2000/svg" viewBox="0 0 280 180" width="840" height="540">
  <rect width="280" height="180" fill="#1a1a2e" />
  <path d="M 15.0 31.8 C 13.7 34.4, 24.4 40.6, 30.4 44.6 C 36.4 48.7, 36.0 50.2, 50.7 56.2 C 65.5 62.3, 106.2 77.0, 119.1 80.8 C 132.0 84.7, 125.1 80.3, 128.1 79.3 C 131.2 78.2, 131.5 79.1, 137.4 74.6 C 143.4 70.1, 158.2 55.3, 163.7 52.1 C 169.3 48.9, 168.1 55.8, 170.9 55.4 C 173.7 55.0, 176.7 50.2, 180.5 49.5 C 184.2 48.8, 189.2 49.1, 193.4 51.0 C 197.6 53.0, 194.2 47.9, 205.8 61.2 C 217.3 74.5, 253.0 118.1, 262.8 130.7 C 272.7 143.3, 264.8 134.6, 265.0 136.7 C 265.1 138.8, 264.4 141.2, 263.8 143.2 C 263.1 145.3, 262.4 147.7, 261.2 149.0 C 260.0 150.3, 257.9 151.0, 256.5 151.2 C 255.1 151.5, 253.8 151.2, 252.6 150.6 C 251.5 150.1, 252.2 151.9, 249.4 148.1 C 246.5 144.3, 239.8 131.7, 235.6 127.9 C 231.4 124.2, 226.9 126.6, 224.3 125.8 C 221.7 125.0, 221.5 125.6, 220.0 123.0 C 218.5 120.4, 216.8 113.0, 215.5 110.1 C 214.2 107.2, 213.6 106.8, 212.2 105.7 C 210.9 104.6, 209.7 104.0, 207.2 103.5 C 204.7 103.0, 200.0 103.5, 197.4 102.6 C 194.9 101.8, 193.2 100.4, 192.0 98.7 C 190.7 97.0, 189.5 95.5, 189.8 92.5 C 190.1 89.5, 193.0 83.2, 193.7 80.4 C 194.3 77.6, 194.0 77.2, 193.7 75.8 C 193.4 74.3, 192.8 72.8, 191.8 71.6 C 190.7 70.3, 189.9 69.4, 187.5 68.2 C 185.1 67.0, 181.1 65.0, 177.5 64.3 C 174.0 63.7, 170.1 63.4, 166.3 64.4 C 162.5 65.5, 159.3 66.2, 154.6 70.4 C 149.8 74.6, 143.7 86.1, 137.8 89.6 C 131.8 93.1, 122.4 91.5, 118.9 91.4 C 115.4 91.3, 118.2 95.7, 116.6 89.2 C 115.0 82.7, 109.7 61.2, 109.5 52.3 C 109.3 43.5, 114.4 39.1, 115.2 36.0 C 115.9 32.9, 114.9 33.9, 114.1 33.5 C 113.3 33.2, 112.3 31.5, 110.1 34.1 C 107.9 36.8, 103.1 45.8, 100.7 49.3 C 98.2 52.8, 97.3 53.6, 95.2 55.2 C 93.1 56.8, 90.8 58.0, 87.9 58.8 C 85.0 59.5, 81.8 59.9, 77.8 59.5 C 73.9 59.1, 68.3 57.9, 64.1 56.4 C 59.8 54.9, 55.5 52.8, 52.3 50.5 C 49.0 48.2, 47.0 46.1, 44.7 42.5 C 42.3 38.9, 43.1 30.5, 38.1 28.7 C 33.2 27.0, 16.3 29.1, 15.0 31.8 Z" fill="none" stroke="#E10600" stroke-width="2.5" stroke-linejoin="round" stroke-linecap="round" />
  <circle cx="237" cy="90" r="4" fill="#FFD700" stroke="#000" stroke-width="0.5" />
  <text x="243" y="93" fill="white" font-size="7" font-family="sans-serif">MAIN</text>
  <circle cx="149" cy="53" r="4" fill="#FFD700" stroke="#000" stroke-width="0.5" />
  <text x="155" y="56" fill="white" font-size="7" font-family="sans-serif">ESSES</text>
  <circle cx="213" cy="125" r="4" fill="#FFD700" stroke="#000" stroke-width="0.5" />
  <text x="219" y="128" fill="white" font-size="7" font-family="sans-serif">130R</text>
  <circle cx="119" cy="158" r="4" fill="#FFD700" stroke="#000" stroke-width="0.5" />
  <text x="125" y="161" fill="white" font-size="7" font-family="sans-serif">SPOON</text>
  <text x="140" y="12" fill="#666" font-size="8" text-anchor="middle" font-family="sans-serif">Suzuka Circuit (OSM data, 49 control points)</text>
</svg>